<svg width="14" height="16" viewBox="0 0 14 16" fill="none" xmlns="http://www.w3.org/2000/svg">
<path d="M10.2673 7.48828C10.7312 7.48828 11.0951 7.59655 11.3591 7.8125C11.6231 8.0205 11.7556 8.33674 11.7556 8.76074V9.25195C11.7556 9.68391 11.623 10.0039 11.3591 10.2119C11.0951 10.4199 10.7313 10.5244 10.2673 10.5244H8.37177V7.48828H10.2673Z" fill="#FF8C00"/>
<path d="M10.0993 3.90039C10.5233 3.90039 10.8554 3.99648 11.0954 4.18848C11.3353 4.38048 11.4557 4.66878 11.4557 5.05273V5.52051C11.4557 5.90445 11.3354 6.19279 11.0954 6.38477C10.8554 6.5687 10.5232 6.66016 10.0993 6.66016H8.37177V3.90039H10.0993Z" fill="#FF8C00"/>
<path fill-rule="evenodd" clip-rule="evenodd" d="M13.5075 15.6006H6.30731V0H13.5075V15.6006ZM7.36298 3.02441V11.4004H10.5671C10.8871 11.4004 11.1837 11.3407 11.4557 11.2207C11.7356 11.0927 11.9755 10.92 12.1755 10.7041C12.3833 10.4882 12.543 10.2323 12.655 9.93652C12.767 9.64052 12.8229 9.32428 12.8229 8.98828C12.8229 8.40434 12.6709 7.96023 12.3669 7.65625C12.063 7.34451 11.6754 7.1325 11.2038 7.02051V6.98438C11.5876 6.86436 11.8994 6.65996 12.1393 6.37207C12.3872 6.08412 12.5114 5.68837 12.5114 5.18457C12.5114 4.52857 12.3071 4.0043 11.8991 3.6123C11.4912 3.22047 10.9274 3.02448 10.2077 3.02441H7.36298Z" fill="#FF8C00"/>
<path d="M4.872 3.02439V9.22839C4.872 9.58039 4.812 9.90039 4.692 10.1884C4.572 10.4764 4.4 10.7204 4.176 10.9204C3.96 11.1204 3.7 11.2764 3.396 11.3884C3.092 11.4924 2.76 11.5444 2.4 11.5444C1.76 11.5444 1.232 11.3804 0.816 11.0524C0.4 10.7164 0.128 10.2484 0 9.64839L0.96 9.44439C1 9.61239 1.052 9.77239 1.116 9.92439C1.188 10.0684 1.28 10.1964 1.392 10.3084C1.512 10.4124 1.656 10.4964 1.824 10.5604C1.992 10.6244 2.192 10.6564 2.424 10.6564C2.88 10.6564 3.232 10.5284 3.48 10.2724C3.736 10.0084 3.864 9.60039 3.864 9.04839V3.90039H0.84V3.02439H4.872Z" fill="#FF8C00"/>
</svg>
